<svg width="725" height="611" viewBox="0 0 725 611" fill="none" xmlns="http://www.w3.org/2000/svg">
<path d="M306.283 324.381V559.627C275.663 591.187 232.799 610.791 185.387 610.791C184.667 610.791 183.885 610.729 183.165 610.729V610.791H0V273.238H183.206V273.3C183.947 273.3 184.729 273.238 185.449 273.238C232.84 273.238 275.663 292.842 306.283 324.381Z" fill="#24BFA5"/>
<path d="M353.982 442.025C353.982 487.767 335.812 529.221 306.282 559.627V324.381C335.812 354.787 353.982 396.262 353.982 442.025Z" fill="#CCF9FF"/>
<path d="M724.016 610.79H306.282V559.626C335.812 529.221 353.982 487.766 353.982 442.024C353.982 396.261 335.812 354.786 306.282 324.381V323.762L506.033 124.343L724.016 610.79Z" fill="#F05043"/>
<path d="M194.421 49.1648C193.927 49.1648 193.413 49.2266 192.919 49.2266V49.1648H94.4531V273.259H192.919V273.197C193.413 273.197 193.927 273.259 194.421 273.259C256.217 273.259 306.283 223.126 306.283 161.243C306.283 99.3597 256.217 49.1648 194.421 49.1648Z" fill="#67D6F1"/>
<path d="M630.222 0H306.282V324.38L630.222 0Z" fill="#FECB55"/>
</svg>
